P2
3 2
255
0   10  20
10 255  40
