P2
2 4
255
0   10
10 255
50 10
20 40
