P2
2 2
255
0   20
10 255
